<svg width="30" height="30" viewBox="0 0 30 30" fill="none" xmlns="http://www.w3.org/2000/svg">
<path d="M15 0C23.295 0 30 6.72 30 15C30 23.295 23.295 30 15 30C6.72 30 0 23.295 0 15C0 6.72 6.72 0 15 0ZM14.475 7.395C13.86 7.395 13.35 7.89 13.35 8.52V16.095C13.35 16.485 13.56 16.845 13.905 17.055L19.785 20.565C19.965 20.67 20.16 20.73 20.37 20.73C20.745 20.73 21.12 20.535 21.33 20.175C21.645 19.65 21.48 18.96 20.94 18.63L15.6 15.45V8.52C15.6 7.89 15.09 7.395 14.475 7.395Z" fill="#FF5516"/>
</svg>
