<svg width="48" height="49" viewBox="0 0 48 49" fill="none" xmlns="http://www.w3.org/2000/svg">
<mask id="path-1-inside-1" fill="white">
<path d="M1.75632 43.1424L2.32982 43.5736C3.3578 44.3442 4.61507 44.7552 5.88842 44.7552C6.18764 44.7552 6.48768 44.7278 6.78608 44.6812C7.86477 46.845 10.0825 48.2641 12.5303 48.2641H35.2055C37.6863 48.2641 39.9113 46.8282 40.9788 44.6323C41.0375 44.6444 41.0922 44.6661 41.1518 44.6766C41.4712 44.7296 41.7937 44.7562 42.1146 44.7562C43.3871 44.7562 44.6452 44.3452 45.6717 43.5746L46.246 43.1434C46.9628 42.606 47.4904 41.8725 47.7736 41.0229C48.1299 39.9548 48.0639 38.8044 47.5878 37.7836L42.5603 27.0095C42.3874 26.6395 41.9642 26.4577 41.5765 26.5864L39.8969 27.1462L38.3405 14.382L38.3211 14.3845C38.3259 13.4788 38.1634 12.5665 37.828 11.6938L35.8685 6.60042C35.2756 5.05838 33.7666 4.02236 32.1144 4.02236H28.6208C28.2364 1.74311 26.2544 0 23.867 0C21.4795 0 19.4982 1.74311 19.113 4.02195H15.6194C13.9672 4.02195 12.4588 5.05797 11.8653 6.60001L9.90655 11.6936C9.57025 12.5671 9.40858 13.4785 9.41267 14.3842L9.39263 14.3818L7.84664 27.0608L6.42361 26.5861C6.03346 26.4574 5.6136 26.6391 5.43979 27.0092L0.412222 37.7835C-0.0639395 38.8042 -0.129918 39.9545 0.226419 41.0228C0.511189 41.8722 1.0397 42.6051 1.75632 43.1424ZM46.1304 38.4623C46.4321 39.109 46.4739 39.8363 46.2479 40.5127C46.0685 41.0509 45.7338 41.5151 45.281 41.8545L44.7067 42.2857C43.7695 42.9887 42.5693 43.2807 41.4158 43.0884C40.1971 42.8857 39.2512 41.8858 39.1145 40.6583L37.8757 29.5149L41.4054 28.3389L46.1304 38.4623ZM34.3676 7.17691L36.3263 12.2703C37.0246 14.085 36.7664 16.1122 35.6362 17.6944C34.7513 18.934 33.3975 19.7634 31.9118 20.0199V18.2776C32.3904 17.9984 32.7162 17.4853 32.7162 16.8925V15.2836C32.7162 14.6908 32.3904 14.1776 31.9118 13.8985V5.62996H32.1153C33.1062 5.62996 34.0112 6.25185 34.3676 7.17691ZM27.0853 20.1092H20.6501V18.2768C21.1287 17.9976 21.4545 17.4845 21.4545 16.8917V15.2828C21.4545 14.69 21.1287 14.1767 20.6501 13.8977V5.62996H27.0853V13.8976C26.6067 14.1767 26.2809 14.6898 26.2809 15.2827V16.8915C26.2809 17.4844 26.6067 17.9976 27.0853 18.2767V20.1092ZM16.6282 16.8923V15.2827H19.8458V16.8915L16.6282 16.8923ZM19.0413 13.674H17.4324V5.62996H19.0413V13.674ZM17.4326 18.5004H19.0414V24.6025L18.237 25.4069L17.4326 24.6025V18.5004ZM27.8897 16.8923V15.2827H31.1074V16.8915L27.8897 16.8923ZM30.303 13.674H28.6941V5.62996H30.303V13.674ZM28.6941 18.5004H30.303V24.6025L29.4986 25.4069L28.6941 24.6025V18.5004ZM23.8678 1.60802C25.3624 1.60802 26.6116 2.63763 26.9712 4.02127H20.7643C21.1239 2.63763 22.3732 1.60802 23.8678 1.60802ZM11.4092 12.2695L13.368 7.17609C13.7243 6.25103 14.6293 5.62928 15.6202 5.62928H15.8237V13.8969C15.3451 14.1761 15.0193 14.6892 15.0193 15.282V16.8908C15.0193 17.4837 15.3451 17.9969 15.8237 18.276V20.0183C14.338 19.7617 12.9842 18.9324 12.0994 17.692C10.9692 16.1122 10.711 14.0842 11.4092 12.2695ZM10.5452 18.2366C10.6273 18.3677 10.6997 18.502 10.7898 18.6284C11.9755 20.2886 13.8175 21.3802 15.8237 21.6497V24.9357C15.8237 25.1489 15.9083 25.3539 16.0594 25.5044L17.6683 27.1133C17.8252 27.2702 18.031 27.3489 18.237 27.3489C18.443 27.3489 18.6488 27.2702 18.8057 27.1133L20.4145 25.5044C20.5657 25.3532 20.6502 25.1489 20.6502 24.9357V21.718H27.0854V24.9357C27.0854 25.1489 27.17 25.3539 27.3211 25.5044L28.93 27.1133C29.0869 27.2702 29.2927 27.3489 29.4987 27.3489C29.7047 27.3489 29.9105 27.2702 30.0674 27.1133L31.6762 25.5044C31.8274 25.3532 31.9119 25.1489 31.9119 24.9357V21.6497C33.9173 21.3811 35.7602 20.2895 36.9451 18.6292C37.036 18.5021 37.1084 18.3677 37.1905 18.2366L38.3407 27.6649L36.7513 28.1951C36.3916 28.3149 36.1648 28.6696 36.2067 29.0469L37.5171 40.8362C37.6643 42.1658 38.4213 43.3146 39.4983 44.016C38.6819 45.6159 37.0353 46.6544 35.2061 46.6544H12.5306C10.7617 46.6544 9.14398 45.6706 8.30508 44.1463C9.49078 43.4633 10.3305 42.2487 10.4874 40.8362L11.797 29.0469C11.8389 28.6697 11.612 28.3149 11.2524 28.1951L9.40626 27.5797L10.5452 18.2366ZM1.8722 38.4623L6.59728 28.3382L10.127 29.5142L8.88907 40.6576C8.75234 41.8852 7.80629 42.8851 6.58842 43.0878C5.43093 43.2792 4.2331 42.9872 3.29686 42.285L2.72337 41.8538C2.2697 41.5144 1.93504 41.0494 1.75564 40.512C1.52867 39.8371 1.57052 39.1092 1.8722 38.4623Z"/>
</mask>
<path d="M1.75632 43.1424L2.32982 43.5736C3.3578 44.3442 4.61507 44.7552 5.88842 44.7552C6.18764 44.7552 6.48768 44.7278 6.78608 44.6812C7.86477 46.845 10.0825 48.2641 12.5303 48.2641H35.2055C37.6863 48.2641 39.9113 46.8282 40.9788 44.6323C41.0375 44.6444 41.0922 44.6661 41.1518 44.6766C41.4712 44.7296 41.7937 44.7562 42.1146 44.7562C43.3871 44.7562 44.6452 44.3452 45.6717 43.5746L46.246 43.1434C46.9628 42.606 47.4904 41.8725 47.7736 41.0229C48.1299 39.9548 48.0639 38.8044 47.5878 37.7836L42.5603 27.0095C42.3874 26.6395 41.9642 26.4577 41.5765 26.5864L39.8969 27.1462L38.3405 14.382L38.3211 14.3845C38.3259 13.4788 38.1634 12.5665 37.828 11.6938L35.8685 6.60042C35.2756 5.05838 33.7666 4.02236 32.1144 4.02236H28.6208C28.2364 1.74311 26.2544 0 23.867 0C21.4795 0 19.4982 1.74311 19.113 4.02195H15.6194C13.9672 4.02195 12.4588 5.05797 11.8653 6.60001L9.90655 11.6936C9.57025 12.5671 9.40858 13.4785 9.41267 14.3842L9.39263 14.3818L7.84664 27.0608L6.42361 26.5861C6.03346 26.4574 5.6136 26.6391 5.43979 27.0092L0.412222 37.7835C-0.0639395 38.8042 -0.129918 39.9545 0.226419 41.0228C0.511189 41.8722 1.0397 42.6051 1.75632 43.1424ZM46.1304 38.4623C46.4321 39.109 46.4739 39.8363 46.2479 40.5127C46.0685 41.0509 45.7338 41.5151 45.281 41.8545L44.7067 42.2857C43.7695 42.9887 42.5693 43.2807 41.4158 43.0884C40.1971 42.8857 39.2512 41.8858 39.1145 40.6583L37.8757 29.5149L41.4054 28.3389L46.1304 38.4623ZM34.3676 7.17691L36.3263 12.2703C37.0246 14.085 36.7664 16.1122 35.6362 17.6944C34.7513 18.934 33.3975 19.7634 31.9118 20.0199V18.2776C32.3904 17.9984 32.7162 17.4853 32.7162 16.8925V15.2836C32.7162 14.6908 32.3904 14.1776 31.9118 13.8985V5.62996H32.1153C33.1062 5.62996 34.0112 6.25185 34.3676 7.17691ZM27.0853 20.1092H20.6501V18.2768C21.1287 17.9976 21.4545 17.4845 21.4545 16.8917V15.2828C21.4545 14.69 21.1287 14.1767 20.6501 13.8977V5.62996H27.0853V13.8976C26.6067 14.1767 26.2809 14.6898 26.2809 15.2827V16.8915C26.2809 17.4844 26.6067 17.9976 27.0853 18.2767V20.1092ZM16.6282 16.8923V15.2827H19.8458V16.8915L16.6282 16.8923ZM19.0413 13.674H17.4324V5.62996H19.0413V13.674ZM17.4326 18.5004H19.0414V24.6025L18.237 25.4069L17.4326 24.6025V18.5004ZM27.8897 16.8923V15.2827H31.1074V16.8915L27.8897 16.8923ZM30.303 13.674H28.6941V5.62996H30.303V13.674ZM28.6941 18.5004H30.303V24.6025L29.4986 25.4069L28.6941 24.6025V18.5004ZM23.8678 1.60802C25.3624 1.60802 26.6116 2.63763 26.9712 4.02127H20.7643C21.1239 2.63763 22.3732 1.60802 23.8678 1.60802ZM11.4092 12.2695L13.368 7.17609C13.7243 6.25103 14.6293 5.62928 15.6202 5.62928H15.8237V13.8969C15.3451 14.1761 15.0193 14.6892 15.0193 15.282V16.8908C15.0193 17.4837 15.3451 17.9969 15.8237 18.276V20.0183C14.338 19.7617 12.9842 18.9324 12.0994 17.692C10.9692 16.1122 10.711 14.0842 11.4092 12.2695ZM10.5452 18.2366C10.6273 18.3677 10.6997 18.502 10.7898 18.6284C11.9755 20.2886 13.8175 21.3802 15.8237 21.6497V24.9357C15.8237 25.1489 15.9083 25.3539 16.0594 25.5044L17.6683 27.1133C17.8252 27.2702 18.031 27.3489 18.237 27.3489C18.443 27.3489 18.6488 27.2702 18.8057 27.1133L20.4145 25.5044C20.5657 25.3532 20.6502 25.1489 20.6502 24.9357V21.718H27.0854V24.9357C27.0854 25.1489 27.17 25.3539 27.3211 25.5044L28.93 27.1133C29.0869 27.2702 29.2927 27.3489 29.4987 27.3489C29.7047 27.3489 29.9105 27.2702 30.0674 27.1133L31.6762 25.5044C31.8274 25.3532 31.9119 25.1489 31.9119 24.9357V21.6497C33.9173 21.3811 35.7602 20.2895 36.9451 18.6292C37.036 18.5021 37.1084 18.3677 37.1905 18.2366L38.3407 27.6649L36.7513 28.1951C36.3916 28.3149 36.1648 28.6696 36.2067 29.0469L37.5171 40.8362C37.6643 42.1658 38.4213 43.3146 39.4983 44.016C38.6819 45.6159 37.0353 46.6544 35.2061 46.6544H12.5306C10.7617 46.6544 9.14398 45.6706 8.30508 44.1463C9.49078 43.4633 10.3305 42.2487 10.4874 40.8362L11.797 29.0469C11.8389 28.6697 11.612 28.3149 11.2524 28.1951L9.40626 27.5797L10.5452 18.2366ZM1.8722 38.4623L6.59728 28.3382L10.127 29.5142L8.88907 40.6576C8.75234 41.8852 7.80629 42.8851 6.58842 43.0878C5.43093 43.2792 4.2331 42.9872 3.29686 42.285L2.72337 41.8538C2.2697 41.5144 1.93504 41.0494 1.75564 40.512C1.52867 39.8371 1.57052 39.1092 1.8722 38.4623Z" fill="#7D5921" stroke="#7D5921" stroke-width="2.89222" mask="url(#path-1-inside-1)"/>
<path d="M32.4902 34.9589L31.1888 33.2236V35.3927V41.8279C31.1888 43.2032 30.0693 44.3226 28.6941 44.3226H19.0413C17.6662 44.3226 16.5468 43.2033 16.5467 41.8279C16.5467 41.8279 16.5467 41.8279 16.5467 41.8279V32.1751C16.5467 30.7998 17.6661 29.6805 19.0413 29.6805H28.6941C30.0694 29.6805 31.1888 30.7999 31.1888 32.1751V32.7116V32.9526L31.3334 33.1455L33.1518 35.5699L33.0217 35.6674L32.4902 34.9589ZM16.8241 31.4521H16.7094V32.1752V41.8281C16.7094 43.1147 17.7546 44.16 19.0413 44.16H28.6943C29.9809 44.16 31.0262 43.1147 31.0262 41.8281V32.1752C31.0262 30.8886 29.9809 29.8433 28.6943 29.8433H19.0414C18.0071 29.8433 17.1288 30.5188 16.8241 31.4521Z" fill="#7D5921" stroke="#7D5921" stroke-width="1.44611"/>
<mask id="path-3-inside-2" fill="white">
<path d="M19 33.264H29V34.264H19V33.264Z"/>
</mask>
<path d="M19 33.264H29V34.264H19V33.264Z" fill="#7D5921"/>
<path d="M19 33.264V31.8179H17.5539V33.264H19ZM29 33.264H30.4461V31.8179H29V33.264ZM29 34.264V35.7101H30.4461V34.264H29ZM19 34.264H17.5539V35.7101H19V34.264ZM19 34.7101H29V31.8179H19V34.7101ZM27.5539 33.264V34.264H30.4461V33.264H27.5539ZM29 32.8179H19V35.7101H29V32.8179ZM20.4461 34.264V33.264H17.5539V34.264H20.4461Z" fill="#7D5921" mask="url(#path-3-inside-2)"/>
</svg>
